<?xml version="1.0" standalone="no"?><!DOCTYPE svg PUBLIC "-//W3C//DTD SVG 1.1//EN" "http://www.w3.org/Graphics/SVG/1.1/DTD/svg11.dtd"><svg t="1773801314242" class="icon" viewBox="0 0 1024 1024" version="1.1" xmlns="http://www.w3.org/2000/svg" p-id="6704" xmlns:xlink="http://www.w3.org/1999/xlink" width="200" height="200"><path d="M512 16C238.2 16 16 238.2 16 512s222.2 496 496 496 496-222.2 496-496S785.8 16 512 16z m201.4 729.8c-8.4 0-13.6-2.6-21.4-7.2-124.8-75.2-270-78.4-413.4-49-7.8 2-18 5.2-23.8 5.2-19.4 0-31.6-15.4-31.6-31.6 0-20.6 12.2-30.4 27.2-33.6 163.8-36.2 331.2-33 474 52.4 12.2 7.8 19.4 14.8 19.4 33s-14.2 30.8-30.4 30.8z m53.8-131.2c-10.4 0-17.4-4.6-24.6-8.4-125-74-311.4-103.8-477.2-58.8-9.6 2.6-14.8 5.2-23.8 5.2-21.4 0-38.8-17.4-38.8-38.8s10.4-35.6 31-41.4c55.6-15.6 112.4-27.2 195.6-27.2 129.8 0 255.2 32.2 354 91 16.2 9.6 22.6 22 22.6 39.4-0.2 21.6-17 39-38.8 39z m62-152.4c-10.4 0-16.8-2.6-25.8-7.8-142.4-85-397-105.4-561.8-59.4-7.2 2-16.2 5.2-25.8 5.2-26.4 0-46.6-20.6-46.6-47.2 0-27.2 16.8-42.6 34.8-47.8 70.4-20.6 149.2-30.4 235-30.4 146 0 299 30.4 410.8 95.6 15.6 9 25.8 21.4 25.8 45.2 0 27.2-22 46.6-46.4 46.6z" fill="#1db954" p-id="6705"></path></svg>